<svg xmlns="http://www.w3.org/2000/svg" width="64" height="64" viewBox="0 0 64 64"><path d="M61.94 9.643C61.684 1.63 57.445.097 54.224.013S20.57.353 16.077.266s-7.546.29-9.75 1.96c-4.49 3.41-3.135 13.552-3.135 19.348s.593 35.542 2.458 39.292 4.662 3.24 18.14 2.898 28.908-.256 32.045-.767c3.137-.51 4.917-4.347 5.34-7.67.425-3.325 1.018-37.673.764-45.685zm-2.544 30.06c.057 3.35-.113 7.84-.113 7.84s-.848-.682-1.074-.568c-.228.114-.793 1.08-.51 1.307.282.227 1.58 1.08 1.58 1.307s-.056 2.5-.225 2.44c-.17-.056-1.978-1.647-2.148-1.704-.17-.057-1.074 1.08-.848 1.307.225.227 2.542 1.99 2.542 2.273 0 .284-.848 2.443-1.187 2.273-.34-.17-2.6-2.84-2.77-2.9-.17-.056-1.186.34-.96.853.226.51 2.713 3.012 2.6 3.353-.113.34-1.13 1.42-1.47 1.25-.338-.17-2.88-3.75-3.22-3.864s-1.413.284-1.13.682c.283.398 3.334 3.693 3.052 3.693h-2.77s-2.373-3.977-2.6-4.09c-.225-.115-1.638.226-1.468.454.17.228 2.203 3.865 2.203 3.865h-2.09s-1.98-3.693-2.262-3.864c-.282-.17-1.694 0-1.58.285s2.373 3.75 2.034 3.75c-.34 0-20.063.284-26.166.227-6.105-.057-10.06-1.59-11.417-6.364S5.54 38.62 5.37 30.495 4.068 7.71 6.668 4.13c1.58-2.175 5.143-2.215 8.647-2.272s22.38-.114 29.613-.17c7.234-.057 11.416-.227 13.733 2.84 2.32 3.07.68 31.82.737 35.174zM15.54 4.87c-.338-.284-4.472-.214-5.763.51-1.922 1.08-1.64 7.786-1.356 8.127.285.34 1.584.17 1.923.114.34-.055.17-.225.113-1.93-.057-1.705 0-3.807.904-4.546.903-.74 4.068-.284 4.238-.284s.282-1.706-.057-1.99zm22.493 22.445s2.43-3.125 2.148-8.978c-.28-5.852-3.954-8.978-8.984-8.694-5.03.284-14.534 1.694-15.146 2.273-.962.91-.85 3.637-.85 6.08s.34 29.775.623 31.252c.283 1.477 1.243 1.932 3.956 2.046s12.996.227 18.252-1.477 5.82-4.205 5.595-12.614c-.226-8.41-5.595-9.888-5.595-9.888zm1.696 20c-3.167 2.33-13.34 2.388-16.165 2.444s-3.165-.23-3.165-.23-1.073-34.092-.677-34.717c.323-.51 8.703-1.932 12.49-1.648 3.786.284 6.217 4.83 6.16 7.216s-2.487 6.706-2.656 7.104c-.17.398-.283 1.477.79 1.818 1.075.34 4.07 2.103 4.748 6.137s1.638 9.545-1.526 11.875zm9.83-5.17c-5.933 3.636-2.6 7.557.17 8.58 2.77 1.023 6.105-.795 5.878-4.148s-3.422-6.04-6.048-4.432zm4.296 5.625c-.34 1.818-2.26 2.33-3.786 1.193-1.525-1.137-1.3-3.068.453-4.09 1.576-.92 3.673 1.08 3.333 2.897zm-21.984-20.4c1.81-1.874 1.3-5.738-.226-8.067-1.526-2.33-7.07-1.057-7.347-.568-.227.398.34 9.546.45 10.057.114.51 5.314.454 7.12-1.42l.002-.002zm-5.538-7.783c.126-.127 4.012-.91 4.747 2.16s-4.07 4.772-4.577 4.318c-.508-.455-.395-6.25-.17-6.478zm7.8 16.08c-1.47-1.25-7.51-.43-8.704.17-.79.398-.338 10.398.227 10.853.565.454 6.782 1.023 9.494-1.705 2.715-2.726.454-8.068-1.016-9.318zm-.397 6.876c-.96 1.478-1.978 1.42-3.447 1.42-1.468 0-2.825-.056-3.05-.397-.227-.34-.397-5.91.112-6.25.404-.27 4.52-.795 5.37-.284.847.51 1.977 4.033 1.015 5.51z"/></svg>